<svg width="398" height="398" xmlns="http://www.w3.org/2000/svg" xmlns:xlink="http://www.w3.org/1999/xlink" overflow="hidden"><defs><clipPath id="clip0"><rect x="685" y="119" width="398" height="398"/></clipPath></defs><g clip-path="url(#clip0)" transform="translate(-685 -119)"><path d="M749.868 354.194C744.549 343.977 740.44 333.172 737.624 322 723.144 323.77 708.87 326.939 695 331.463 695 331.463 724.59 401.529 782.668 427.144 803.641 435.92 826.298 439.91 849 438.826 825.579 428.883 775.571 402.944 749.868 354.194Z" fill-rule="evenodd"/><path d="M1029.88 322C1027.05 333.183 1022.92 343.998 1017.57 354.222 991.773 402.946 941.546 428.875 918 438.815 940.904 439.936 963.77 435.947 984.932 427.137 1043.28 401.54 1073 331.499 1073 331.499 1058.97 326.944 1044.53 323.762 1029.88 322Z" fill-rule="evenodd"/><path d="M813.333 315.567C813.61 295.601 817.647 275.861 825.239 257.357 804.634 240.034 781.143 226.379 755.812 217 755.812 217 735.371 290.075 765.307 346.1 786.147 385.1 825.56 408.138 849 419 832.691 395.179 813.333 357.974 813.333 315.567Z" fill-rule="evenodd"/><path d="M1011.22 217C985.695 226.513 962.057 240.421 941.383 258.086 948.774 276.424 952.701 295.962 952.966 315.718 952.966 358.606 933.325 396.177 917 420 940.085 409.427 980.59 386.192 1001.77 346.293 1031.57 290.191 1011.22 217 1011.22 217Z" fill-rule="evenodd"/><path d="M935 315.502C935 380.782 883.009 434 883.009 434 883.009 434 831 380.782 831 315.502 831 252.169 882.991 197 882.991 197 882.991 197 935 252.169 935 315.502Z" fill="#0070C0" fill-rule="evenodd"/></g></svg>